<?xml version="1.0" encoding="UTF-8"?>
<svg xmlns="http://www.w3.org/2000/svg" version="1.1" xmlns:xlink="http://www.w3.org/1999/xlink" viewBox="0 0 1800 1800">
  <!-- Generator: Adobe Illustrator 29.3.1, SVG Export Plug-In . SVG Version: 2.1.0 Build 151)  -->
  <defs>
    <filter id="drop-shadow-1" x="620.9" y="694.9" width="566.2" height="412.9" filterUnits="userSpaceOnUse">
      <feOffset dx="-7" dy="7"/>
      <feGaussianBlur result="blur" stdDeviation="5"/>
      <feFlood flood-color="#000" flood-opacity=".2"/>
      <feComposite in2="blur" operator="in"/>
      <feComposite in="SourceGraphic"/>
    </filter>
  </defs>
  <g id="Logo__x2B__Type">
    <path id="Logo" d="M616.6,821.3c19.9,19.9,32.3,47.5,32.3,77.9,0,60.9-49.3,110.2-110.2,110.2s-58-12.3-77.9-32.3l-21.2,21.2c25.4,25.4,60.4,41.1,99.1,41.1,77.4,0,140.2-62.8,140.2-140.2s-15.7-73.8-41.1-99.1l-21.2,21.2ZM220,977.2s0,0,0,0c-19.9-19.9-32.3-47.5-32.3-77.9,0-60.9,49.3-110.2,110.2-110.2s58,12.3,77.9,32.3c0,0,0,0,0,0l21.2-21.2c-25.4-25.4-60.4-41.1-99.1-41.1-77.4,0-140.2,62.8-140.2,140.2s15.7,73.8,41.1,99.1c0,0,0,0,0,0,7.1,7.1,15,13.5,23.5,18.9,0,0,0,0,0,0l21.9-21.9s0,0,0,0c-8.9-5-17-11.1-24.1-18.3ZM615.9,737.2l-30,30c-14.8-5.3-30.7-8.2-47.2-8.2s-11.2.3-16.6,1c-32,3.8-60.6,18.3-82.3,39.8l-.5.5-169.2,169.2c26.4-3.7,56-13.5,78-35.6l51.4-51.4,61.1-61c.2-.2.3-.3.5-.5,19.9-19.8,47.4-32,77.7-32s15.6.8,23,2.4l-124.4,124.4-60.4,60.4c-.6.6-1.2,1.2-1.9,1.9-19.9,19.4-47,31.3-77,31.3s-15.6-.8-23-2.4l-24.2,24.2c14.8,5.3,30.6,8.2,47.2,8.2s35.1-3.4,50.8-9.5c17.7-6.9,33.7-17.3,47.1-30.4l2.4-2.4h0s295.6-295.6,295.6-295.6c-26.4,3.7-55.9,13.5-78,35.6ZM427.3,714h-15v45h15v-45ZM412.3,1084.5h15v-45h-15v45Z"/>
    <g id="Type">
      <g>
        <path d="M957.6,953.6l-86.8.3-18.4,48.7h-38.4l86.1-219.4h32.8l82.4,219.4h-39.6l-18.1-49ZM914.5,836.5l-30.9,81.8h61.5l-30.3-81.8h-.3Z"/>
        <path d="M1048.8,783.8h151.4v35.9h-111.1v57.1h94.9v34.6h-94.9v54.9h114.2v36.2h-154.5v-218.8Z"/>
        <path d="M1336.2,1008.5c-53.1,0-109.9-39.3-109.9-114.9s56.8-116.1,109.9-116.1,109.6,41.5,109.6,116.7-56.8,114.2-109.6,114.2ZM1336.2,815.9c-43.1,0-71.8,34.3-71.8,78.3s28.7,75.8,71.8,75.8,71.5-32.8,71.5-75.8-28.7-78.3-71.5-78.3Z"/>
        <path d="M1521.6,864.6v138h-39.6v-218.8h23.4l119.5,131.4v-131.4h39.3v218.8h-17.8l-124.8-138Z"/>
      </g>
      <g>
        <path d="M957.6,953.6l-86.8.3-18.4,48.7h-38.4l86.1-219.4h32.8l82.4,219.4h-39.6l-18.1-49ZM914.5,836.5l-30.9,81.8h61.5l-30.3-81.8h-.3Z"/>
        <path d="M1048.8,783.8h151.4v35.9h-111.1v57.1h94.9v34.6h-94.9v54.9h114.2v36.2h-154.5v-218.8Z"/>
        <path d="M1336.2,1008.5c-53.1,0-109.9-39.3-109.9-114.9s56.8-116.1,109.9-116.1,109.6,41.5,109.6,116.7-56.8,114.2-109.6,114.2ZM1336.2,815.9c-43.1,0-71.8,34.3-71.8,78.3s28.7,75.8,71.8,75.8,71.5-32.8,71.5-75.8-28.7-78.3-71.5-78.3Z"/>
        <path d="M1521.6,864.6v138h-39.6v-218.8h23.4l119.5,131.4v-131.4h39.3v218.8h-17.8l-124.8-138Z"/>
      </g>
    </g>
  </g>
  <g id="Logo1" data-name="Logo" display="none">
    <path d="M1101.7,822.6c19.9,19.9,32.3,47.5,32.3,77.9,0,60.9-49.3,110.2-110.2,110.2s-58-12.3-77.9-32.3l-21.2,21.2c25.4,25.4,60.4,41.1,99.1,41.1,77.4,0,140.2-62.8,140.2-140.2s-15.7-73.8-41.1-99.1l-21.2,21.2ZM705.2,978.5s0,0,0,0c-19.9-19.9-32.3-47.5-32.3-77.9,0-60.9,49.3-110.2,110.2-110.2s58,12.3,77.9,32.3c0,0,0,0,0,0l21.2-21.2c-25.4-25.4-60.4-41.1-99.1-41.1-77.4,0-140.2,62.8-140.2,140.2s15.7,73.8,41.1,99.1c0,0,0,0,0,0,7.1,7.1,15,13.5,23.5,18.9,0,0,0,0,0,0l21.9-21.9s0,0,0,0c-8.9-5-17-11.1-24.1-18.3ZM1101,738.5l-30,30c-14.8-5.3-30.7-8.2-47.2-8.2s-11.2.3-16.6,1c-32,3.8-60.6,18.3-82.3,39.8l-.5.5-169.2,169.2c26.4-3.7,56-13.5,78-35.6l51.4-51.4,61.1-61c.2-.2.3-.3.5-.5,19.9-19.8,47.4-32,77.7-32s15.6.8,23,2.4l-124.4,124.4-60.4,60.4c-.6.6-1.2,1.2-1.9,1.9-19.9,19.4-47,31.3-77,31.3s-15.6-.8-23-2.4l-24.2,24.2c14.8,5.3,30.6,8.2,47.2,8.2s35.1-3.4,50.8-9.5c17.7-6.9,33.7-17.3,47.1-30.4l2.4-2.4h0s295.6-295.6,295.6-295.6c-26.4,3.7-55.9,13.5-78,35.6ZM912.4,715.3h-15v45h15v-45ZM897.4,1085.8h15v-45h-15v45Z" filter="url(#drop-shadow-1)"/>
  </g>
  <g id="Guia_Base" display="none">
    <g id="Base_Fibonacci">
      <circle cx="783.1" cy="900.5" r="140.2" fill="none" stroke="#1aff00" stroke-miterlimit="10"/>
      <circle cx="783.1" cy="900.5" r="110.2" fill="none" stroke="#1aff00" stroke-miterlimit="10"/>
      <circle cx="1023.8" cy="900.5" r="140.2" fill="none" stroke="#1aff00" stroke-miterlimit="10"/>
      <circle cx="1023.8" cy="900.5" r="110.2" fill="none" stroke="#1aff00" stroke-miterlimit="10"/>
      <path d="M1025.8,742.7l-182.9,182.9c-22.1,22.1-51.6,31.9-78,35.6l239.7-239.7" fill="none" stroke="#1aff00" stroke-miterlimit="10"/>
      <path d="M821.1,1018.4l279.9-279.9c22.1-22.1,51.6-31.9,78-35.6l-336.7,336.7" fill="none" stroke="#1aff00" stroke-miterlimit="10"/>
      <g>
        <line x1="668" y1="1015.7" x2="1005.5" y2="678.1" fill="none" stroke="#1aff00" stroke-miterlimit="10"/>
        <line x1="689.2" y1="1036.9" x2="1026.8" y2="699.4" fill="none" stroke="#1aff00" stroke-miterlimit="10"/>
      </g>
      <g>
        <line x1="824.6" y1="1057.3" x2="1162.1" y2="719.8" fill="none" stroke="#1aff00" stroke-miterlimit="10"/>
        <line x1="845.8" y1="1078.6" x2="1183.3" y2="741" fill="none" stroke="#1aff00" stroke-miterlimit="10"/>
      </g>
    </g>
  </g>
  <g id="Golden_ratio__x28_don_x27_t_used_x29_" display="none">
    <g>
      <path d="M607.7,972.3v10.3h-10.3v-10.3h10.3M608.2,971.8h-11.3v11.3h11.3v-11.3h0Z" fill="#00ff15"/>
      <path d="M607.7,983.6v10.3h-10.3v-10.3h10.3M608.2,983.1h-11.3v11.3h11.3v-11.3h0Z" fill="#00ff15"/>
      <path d="M630.2,972.3v21.5h-21.5v-21.5h21.5M630.7,971.8h-22.5v22.5h22.5v-22.5h0Z" fill="#00ff15"/>
      <path d="M630.2,938.6v32.8h-32.8v-32.8h32.8M630.7,938.1h-33.8v33.8h33.8v-33.8h0Z" fill="#00ff15"/>
      <path d="M596.4,938.6v55.3h-55.3v-55.3h55.3M596.9,938.1h-56.3v56.3h56.3v-56.3h0Z" fill="#00ff15"/>
      <path d="M630.2,994.9v89.1h-89.1v-89.1h89.1M630.7,994.4h-90.1v90.1h90.1v-90.1h0Z" fill="#00ff15"/>
      <path d="M776.6,938.6v145.4h-145.4v-145.4h145.4M777.1,938.1h-146.4v146.4h146.4v-146.4h0Z" fill="#00ff15"/>
      <path d="M776.6,702.1v235.5h-235.5v-235.5h235.5M777.1,701.6h-236.5v236.5h236.5v-236.5h0Z" fill="#00ff15"/>
      <path d="M540.1,702.1v381.9H158.3v-381.9h381.9M540.6,701.6H157.8v382.9h382.9v-382.9h0Z" fill="#00ff15"/>
      <path d="M157.8,1084.5c0-211.6,171.2-382.9,382.9-382.9" fill="none" stroke="#00ff15" stroke-miterlimit="10" stroke-width=".5"/>
      <path d="M777.1,938.1c0-130.7-105.8-236.5-236.5-236.5" fill="none" stroke="#00ff15" stroke-miterlimit="10" stroke-width=".5"/>
      <path d="M777.1,938.1c0,80.9-65.5,146.4-146.4,146.4" fill="none" stroke="#00ff15" stroke-miterlimit="10" stroke-width=".5"/>
    </g>
  </g>
</svg>