<?xml version="1.0" encoding="UTF-8"?>
<svg id="Logo" xmlns="http://www.w3.org/2000/svg" version="1.1" viewBox="0 0 700 700">
  <!-- Generator: Adobe Illustrator 29.3.1, SVG Export Plug-In . SVG Version: 2.1.0 Build 151)  -->
  <path d="M547.7,271.3c19.9,19.9,32.3,47.5,32.3,77.9,0,60.9-49.3,110.2-110.2,110.2s-58-12.3-77.9-32.3l-21.2,21.2c25.4,25.4,60.4,41.1,99.1,41.1,77.4,0,140.2-62.8,140.2-140.2s-15.7-73.8-41.1-99.1l-21.2,21.2ZM151.2,427.2s0,0,0,0c-19.9-19.9-32.3-47.5-32.3-77.9,0-60.9,49.3-110.2,110.2-110.2s58,12.3,77.9,32.3c0,0,0,0,0,0l21.2-21.2c-25.4-25.4-60.4-41.1-99.1-41.1-77.4,0-140.2,62.8-140.2,140.2s15.7,73.8,41.1,99.1c0,0,0,0,0,0,7.1,7.1,15,13.5,23.5,18.9,0,0,0,0,0,0l21.9-21.9s0,0,0,0c-8.9-5-17-11.1-24.1-18.3ZM547,187.2l-30,30c-14.8-5.3-30.7-8.2-47.2-8.2s-11.2.3-16.6,1c-32,3.8-60.6,18.3-82.3,39.8l-.5.5-169.2,169.2c26.4-3.7,56-13.5,78-35.6l51.4-51.4,61.1-61c.2-.2.3-.3.5-.5,19.9-19.8,47.4-32,77.7-32s15.6.8,23,2.4l-124.4,124.4-60.4,60.4c-.6.6-1.2,1.2-1.9,1.9-19.9,19.4-47,31.3-77,31.3s-15.6-.8-23-2.4l-24.2,24.2c14.8,5.3,30.6,8.2,47.2,8.2s35.1-3.4,50.8-9.5c17.7-6.9,33.7-17.3,47.1-30.4l2.4-2.4h0s295.6-295.6,295.6-295.6c-26.4,3.7-55.9,13.5-78,35.6ZM358.4,164h-15v45h15v-45ZM343.4,534.4h15v-45h-15v45Z"/>
</svg>